<?xml version="1.0" standalone="no"?>
<!DOCTYPE svg PUBLIC "-//W3C//DTD SVG 20010904//EN"
 "http://www.w3.org/TR/2001/REC-SVG-20010904/DTD/svg10.dtd">
<svg version="1.0" xmlns="http://www.w3.org/2000/svg"
 width="256.000000pt" height="256.000000pt" viewBox="0 0 256.000000 256.000000"
 preserveAspectRatio="xMidYMid meet">

<g transform="translate(0.000000,256.000000) scale(0.100000,-0.100000)"
fill="#000000" stroke="none">
<path d="M737 2218 l-537 -311 0 -628 0 -627 540 -312 541 -312 192 110 c106
61 347 201 537 310 l345 200 0 631 0 632 -535 309 c-294 171 -537 310 -540
309 -3 0 -247 -140 -543 -311z m1221 -270 l242 -140 -2 -530 -3 -530 -457
-264 -457 -264 -238 138 -238 138 -3 167 c-2 163 -3 167 -25 172 -50 11 -169
35 -178 35 -5 0 -9 -52 -9 -120 0 -66 -4 -120 -9 -120 -5 0 -57 28 -115 61
l-106 62 0 527 0 526 461 266 460 266 217 -125 c119 -69 326 -188 460 -265z"/>
<path d="M1284 1289 c4 -530 9 -965 11 -968 2 -2 77 39 166 90 l162 94 105
160 c57 88 106 162 108 164 1 2 37 -22 79 -52 l75 -56 66 37 66 37 -4 488 c-3
421 -5 490 -18 497 -8 5 -44 26 -79 46 l-64 37 7 -372 c4 -204 4 -371 -1 -371
-4 0 -35 27 -69 61 l-61 60 -79 -90 c-43 -49 -82 -90 -86 -90 -5 -1 -8 218 -8
487 l0 487 -132 75 c-72 41 -159 90 -191 109 l-60 34 7 -964z"/>
<path d="M953 1906 l-153 -76 0 -130 c0 -85 4 -130 11 -130 17 0 283 81 292
89 4 4 6 78 5 165 l-3 157 -152 -75z"/>
<path d="M508 1689 l-78 -39 0 -99 0 -99 76 24 c42 13 78 25 81 27 2 3 2 54 1
115 l-3 110 -77 -39z"/>
<path d="M683 1522 l-92 -26 -3 -86 -3 -85 -52 -9 -53 -9 0 -118 0 -117 28 -6
c15 -3 55 -8 90 -11 l62 -7 0 81 0 81 30 0 30 0 0 -85 c0 -47 4 -85 8 -85 4 0
62 -7 127 -15 66 -8 123 -15 128 -15 4 0 7 84 7 186 0 172 -1 185 -17 181 -10
-3 -40 -8 -68 -12 -27 -3 -62 -8 -77 -11 l-28 -6 0 101 c0 75 -3 101 -12 100
-7 0 -54 -13 -105 -27z"/>
</g>
</svg>
