<svg version="1.0" xmlns="http://www.w3.org/2000/svg"
 width="256pt" height="256pt" viewBox="0 0 256 256"
 preserveAspectRatio="xMidYMid meet">
<g transform="translate(0,256) scale(0.1,-0.1)"
fill="#000000" stroke="none">
<path d="M737 2218 l-537 -311 0 -628 0 -627 540 -312 541 -312 192 110 192
111 345 199 345 200 0 631 0 632 -535 309 -535 310 -5 -1 -5 0 -538 -311z
m1221 -270 l242 -140 -2 -530 -3 -530 -457 -264 -457 -264 -238 138 -238 138
-3 167 -2 167 -23 5 -22 5 -73 15 -73 15 -10 0 -9 0 0 -120 0 -120 -9 0 -9 0
-106 61 -106 62 0 527 0 526 461 266 460 266 217 -125 217 -125 243 -140z"/>
<path d="M1284 1289 l7 -964 4 -4 4 -3 162 93 162 94 105 160 105 160 3 4 3 3
76 -55 75 -56 66 37 66 37 -4 488 -3 488 -15 9 -15 9 -64 37 -64 37 7 -372 7
-371 -8 0 -7 0 -62 61 -61 60 -79 -90 -79 -89 -7 -1 -8 -1 0 488 0 487 -132
75 -132 75 -59 34 -60 34 7 -964z"/>
<path d="M953 1906 l-153 -76 0 -130 0 -130 11 0 10 0 137 41 137 41 8 7 8 8
-3 157 -3 157 -152 -75z"/>
<path d="M508 1689 l-78 -39 0 -99 0 -99 76 24 77 23 4 4 4 4 -3 111 -3 110
-77 -39z"/>
<path d="M683 1522 l-92 -26 -3 -86 -3 -85 -52 -9 -53 -9 0 -118 0 -117 28 -6
27 -5 63 -6 62 -7 0 81 0 81 30 0 30 0 0 -85 0 -85 8 0 8 0 119 -15 120 -15 8
0 7 0 0 186 0 185 -17 -4 -18 -5 -50 -7 -50 -6 -27 -5 -28 -6 0 101 0 101 -12
-1 -13 -1 -92 -26z"/>
</g>
</svg>
